<?xml version="1.0" encoding="UTF-8"?> <!-- Generator: Adobe Illustrator 22.1.0, SVG Export Plug-In . SVG Version: 6.00 Build 0) --> <svg xmlns="http://www.w3.org/2000/svg" xmlns:xlink="http://www.w3.org/1999/xlink" id="Layer_1" x="0px" y="0px" viewBox="0 0 351.4 126.1" style="enable-background:new 0 0 351.4 126.1;" xml:space="preserve"> <style type="text/css"> .st0{fill:#FFFFFF;} .st1{fill:#F78E1E;} </style> <path class="st0" d="M328.8,25.3C326.9,9.1,313.9,0,298.4,0c-21.8,0-34.6,16.2-34.6,37.1c0,20.3,12.8,36.5,34.6,36.5 c17.2,0,29.3-11.2,30.9-28.8h-15c-1.2,9.3-6.5,15.8-16,15.8c-13.9,0-19.1-11.8-19.1-23.5c0-12.3,5.2-24.1,19.1-24.1 c7.7,0,14.4,5.3,15.4,12.3H328.8z M229.3,19h0.2l8.9,25.8h-18.2L229.3,19z M194.9,72h15.7l5.5-15.7h26.3l5.3,15.7h16.1L237.5,1.7 h-15.9L194.9,72z M158.5,13.7h12c7.2,0,13.6,1.6,13.6,10.5c0,9-6.4,10.5-13.6,10.5h-12V13.7z M143,72h15.5V46.8h16.2 c17.5,0,24.3-11.1,24.3-22.5c0-11.4-6.8-22.5-24.3-22.5H143V72z"></path> <path class="st1" d="M81.8,37.1C81.8,24.8,87,13,100.9,13c13.9,0,19.1,11.8,19.1,24.1c0,11.7-5.2,23.5-19.1,23.5 C87,60.7,81.8,48.8,81.8,37.1 M66.3,37.1c0,20.3,12.8,36.5,34.6,36.5c21.8,0,34.6-16.2,34.6-36.5c0-20.9-12.8-37.1-34.6-37.1 C79.1,0,66.3,16.2,66.3,37.1 M0.1,48.6c-0.2,17.3,14.4,25,29.9,25c19.1,0,29.2-9.7,29.2-22.5c0-16-15.8-19.2-20.9-20.5 c-17.6-4.5-21-5.2-21-10.6c0-5.9,5.7-8,10.6-8c7.4,0,13.4,2.2,13.9,10.6h15C56.9,6.4,43.4,0,28.7,0C16,0,2.4,6.9,2.4,21.3 c0,13.2,10.5,17.2,21,20c10.3,2.8,20.9,4,20.9,11.6c0,7.2-8.3,8.8-13.7,8.8c-8.3,0-15.6-3.6-15.6-13H0.1z"></path> <path class="st0" d="M338.3,108.4h6.7c2.7,0,4.1,1.5,4.1,3.7c0,2.3-1.9,3.7-4.1,3.7h-6.7V108.4z M336.6,125.7h1.8v-8.4h6.8 c3.4-0.1,3.6,2.8,3.8,5.4c0.1,0.8,0.1,2.2,0.5,2.9h2c-0.8-0.9-0.8-3.5-0.9-4.8c-0.1-2.2-0.8-3.9-3.3-4.2v-0.1 c2.4-0.5,3.7-2.4,3.7-4.8c0-3.4-2.6-4.9-5.7-4.9h-8.6V125.7z M320.7,125.7h13.1v-1.5h-11.3v-7.4h10.5v-1.5h-10.5v-6.8h11.2v-1.5h-13 V125.7z M303.7,108.4h6.6v17.3h1.8v-17.3h6.6v-1.5h-14.9V108.4z M286.9,125.7h1.8v-15.9h0.1l11,15.9h2v-18.8h-1.8v15.9h-0.1 l-11-15.9h-2V125.7z M271.1,125.7h13.1v-1.5h-11.3v-7.4h10.5v-1.5h-10.5v-6.8h11.2v-1.5h-13V125.7z M267.8,112.6 c-0.5-4-4-6.1-7.6-6.1c-5.9,0-8.9,4.7-8.9,9.8s2.9,9.8,8.9,9.8c4.4,0,7.3-2.9,7.8-7.6h-1.8c-0.3,3.3-2.6,6-6,6c-5,0-7.1-4.2-7.1-8.3 c0-4.1,2.1-8.3,7.1-8.3c2.7,0,5.1,1.7,5.8,4.6H267.8z M226.9,119.5c-0.2,4.6,3.1,6.6,7.5,6.6c6.7,0,7.2-4.1,7.2-5.4 c0-3.1-2.2-4.2-4.9-5l-4.6-1.1c-1.5-0.4-2.8-1.1-2.8-2.9c0-2.8,2.3-3.7,4.7-3.7c2.7,0,5,1.4,5.1,4.3h1.8c0-3.8-3.2-5.8-7-5.8 c-5.3,0-6.5,3.4-6.5,5.3c0,2.9,2,4,4.2,4.5l4.2,1c1.7,0.4,3.9,1.3,3.9,3.4c0,2.7-3,3.8-5,3.8c-3.4,0-6.2-1.2-6.1-5.1H226.9z M210.9,108.4h6.6v17.3h1.8v-17.3h6.6v-1.5h-14.9V108.4z M196.7,108.4h6.7c2.7,0,4.1,1.5,4.1,3.7c0,2.3-1.9,3.7-4.1,3.7h-6.7V108.4z M194.9,125.7h1.8v-8.4h6.8c3.4-0.1,3.6,2.8,3.8,5.4c0.1,0.8,0.1,2.2,0.5,2.9h2c-0.8-0.9-0.8-3.5-0.9-4.8c-0.1-2.2-0.8-3.9-3.3-4.2 v-0.1c2.4-0.5,3.7-2.4,3.7-4.8c0-3.4-2.6-4.9-5.7-4.9h-8.6V125.7z M184.5,108.7l3.6,9.6h-7.4L184.5,108.7z M176,125.7h1.9l2.3-5.8 h8.6l2.3,5.8h1.9l-7.4-18.8h-2L176,125.7z M166.8,116.1h-8v1.5h6.4c0.1,4-2.3,6.9-6.5,6.9c-5,0-7.1-4.2-7.1-8.3 c0-4.1,2.1-8.3,7.1-8.3c3.6,0,5.8,2.6,6.1,4.7h1.8c-0.7-4.1-3.9-6.2-7.8-6.2c-5.9,0-8.9,4.7-8.9,9.8c0,5.1,2.9,9.8,8.9,9.8 c2.7,0,5.2-1.1,6.5-3.8h0.1l0.2,3.4h1.3V116.1z M131.9,125.7h1.8v-15.9h0.1l11,15.9h2v-18.8h-1.8v15.9h-0.1l-11-15.9h-2V125.7z M125.9,125.7h1.8v-18.8h-1.8V125.7z M103.5,125.7h1.8v-16.3h0.1l6.5,16.3h1.7l6.4-16.3h0.1v16.3h1.8v-18.8h-2.6l-6.5,16.5 l-6.5-16.5h-2.6V125.7z M87.5,108.4h6.7c2.7,0,4.1,1.5,4.1,3.7c0,2.3-1.9,3.7-4.1,3.7h-6.7V108.4z M85.7,125.7h1.8v-8.4h6.8 c3.4-0.1,3.6,2.8,3.8,5.4c0.1,0.8,0.1,2.2,0.5,2.9h2c-0.8-0.9-0.8-3.5-0.9-4.8c-0.1-2.2-0.8-3.9-3.3-4.2v-0.1 c2.4-0.5,3.7-2.4,3.7-4.8c0-3.4-2.6-4.9-5.7-4.9h-8.6V125.7z M66.7,116.3c0-4.1,2.1-8.3,7.1-8.3c5,0,7.1,4.2,7.1,8.3 c0,4.1-2.1,8.3-7.1,8.3C68.8,124.6,66.7,120.4,66.7,116.3 M64.9,116.3c0,5.1,2.9,9.8,8.9,9.8c5.9,0,8.8-4.7,8.8-9.8 s-2.9-9.8-8.8-9.8C67.9,106.5,64.9,111.1,64.9,116.3 M51.5,125.7h1.8v-9h9v-1.5h-9v-6.8h10.1v-1.5H51.5V125.7z M35.5,108.4h6.7 c2.7,0,4.1,1.5,4.1,3.7c0,2.3-1.9,3.7-4.1,3.7h-6.7V108.4z M33.7,125.7h1.8v-8.4h6.8c3.4-0.1,3.6,2.8,3.8,5.4 c0.1,0.8,0.1,2.2,0.5,2.9h2c-0.8-0.9-0.8-3.5-0.9-4.8c-0.1-2.2-0.8-3.9-3.3-4.2v-0.1c2.4-0.5,3.7-2.4,3.7-4.8c0-3.4-2.6-4.9-5.7-4.9 h-8.6V125.7z M17.8,125.7h13.1v-1.5H19.6v-7.4h10.5v-1.5H19.6v-6.8h11.2v-1.5h-13V125.7z M2.7,108.4h6.2c2.5,0,4.2,1.3,4.2,3.8 c0,2.6-1.7,3.8-4.2,3.8H2.7V108.4z M1,125.7h1.8v-8.1h6.6c3.4,0,5.6-2,5.6-5.4c0-3.4-2.2-5.4-5.6-5.4H1V125.7z"></path> <path class="st0" d="M190.3,99.3h13.1v-1.5h-11.3v-7.4h10.5v-1.5h-10.5v-6.8h11.2v-1.5h-13V99.3z M186.6,89.8h-8v1.5h6.4 c0.1,4-2.3,6.9-6.5,6.9c-5,0-7.1-4.2-7.1-8.3c0-4.1,2.1-8.3,7.1-8.3c3.6,0,5.8,2.6,6.1,4.7h1.8c-0.7-4.1-3.9-6.2-7.8-6.2 c-5.9,0-8.9,4.7-8.9,9.8c0,5.1,2.9,9.8,8.9,9.8c2.7,0,5.2-1.1,6.5-3.8h0.1l0.2,3.4h1.3V89.8z M151.7,99.3h1.8V83.4h0.1l11,15.9h2 V80.5h-1.8v15.9h-0.1l-11-15.9h-2V99.3z M141.3,82.3l3.6,9.6h-7.4L141.3,82.3z M132.8,99.3h1.9l2.3-5.8h8.6l2.3,5.8h1.9l-7.4-18.8 h-2L132.8,99.3z M118.8,82.1h6.7c2.7,0,4.1,1.4,4.1,3.7s-1.9,3.7-4.1,3.7h-6.7V82.1z M117,99.3h1.8V91h6.8c3.4-0.1,3.6,2.8,3.8,5.4 c0.1,0.8,0.1,2.2,0.5,2.9h2c-0.8-0.9-0.8-3.5-0.9-4.8c-0.1-2.2-0.8-3.9-3.3-4.2v-0.1c2.4-0.5,3.7-2.4,3.7-4.8c0-3.4-2.6-4.9-5.7-4.9 H117V99.3z M98,89.9c0-4.1,2.1-8.3,7.1-8.3c5,0,7.1,4.2,7.1,8.3c0,4.1-2.1,8.3-7.1,8.3C100.1,98.2,98,94,98,89.9 M96.2,89.9 c0,5.1,2.9,9.8,8.9,9.8c5.9,0,8.8-4.7,8.8-9.8c0-5.1-2.9-9.8-8.8-9.8C99.2,80.1,96.2,84.8,96.2,89.9 M70.8,99.3h1.8v-9.1h11.2v9.1 h1.8V80.5h-1.8v8.2H72.6v-8.2h-1.8V99.3z M53.9,82.1h6.6v17.3h1.8V82.1h6.6v-1.5H53.9V82.1z M37.4,92.6c0,3.9,2.1,7.2,7.3,7.2 c5.2,0,7.3-3.3,7.3-7.2v-12h-1.8v11.6c0,4.4-2.1,6-5.5,6c-3.5,0-5.5-1.7-5.5-6V80.5h-1.8V92.6z M18.6,89.9c0-4.1,2.1-8.3,7.1-8.3 c5,0,7.1,4.2,7.1,8.3c0,4.1-2.1,8.3-7.1,8.3C20.7,98.2,18.6,94,18.6,89.9 M16.8,89.9c0,5.1,2.9,9.8,8.9,9.8c5.9,0,8.9-4.7,8.9-9.8 c0-5.1-2.9-9.8-8.9-9.8C19.8,80.1,16.8,84.8,16.8,89.9 M0,93.2c-0.2,4.6,3.1,6.6,7.5,6.6c6.7,0,7.2-4.1,7.2-5.4c0-3.1-2.2-4.2-4.9-5 l-4.6-1.1c-1.5-0.4-2.8-1.1-2.8-2.9c0-2.8,2.3-3.7,4.7-3.7c2.7,0,5,1.4,5.1,4.3H14c0-3.8-3.2-5.8-7-5.8c-5.3,0-6.5,3.4-6.5,5.3 c0,2.9,2,4,4.2,4.5L9,91c1.7,0.4,3.9,1.3,3.9,3.4c0,2.7-3,3.8-5,3.8c-3.4,0-6.2-1.2-6.1-5.1H0z"></path> </svg> 